<?xml version="1.0" encoding="utf-8"?>
<!-- Generator: Adobe Illustrator 25.0.1, SVG Export Plug-In . SVG Version: 6.00 Build 0)  -->
<svg version="1.1" id="Layer_1" xmlns="http://www.w3.org/2000/svg" xmlns:xlink="http://www.w3.org/1999/xlink" x="0px" y="0px"
	 viewBox="0 0 201 105" style="enable-background:new 0 0 201 105;" xml:space="preserve">
<style type="text/css">
	.st0{fill:none;stroke:#D5A8E1;stroke-width:3;stroke-miterlimit:10;}
	.st1{fill:#D5A8E1;}
</style>
<g>
	<g>
		<path class="st0" d="M59.74,2.88C49.08,2.5,40.31,11.03,40.31,21.62c0-10.58-8.77-19.12-19.43-18.74
			C10.72,3.24,2.81,11.9,2.81,22.07l0,37.72c0,4.46,3.62,8.08,8.08,8.08h29.42h29.42c4.46,0,8.08-3.62,8.08-8.08l0-37.72
			C77.81,11.9,69.9,3.24,59.74,2.88z"/>
		<g>
			<circle class="st1" cx="46.78" cy="51.46" r="3.03"/>
			<circle class="st1" cx="33.48" cy="51.46" r="3.03"/>
		</g>
	</g>
	<g>
		<path class="st0" d="M102.66,23.6L90.92,44.34c-5.95,10.51,1.64,23.53,13.71,23.53h23.49c12.07,0,19.66-13.02,13.71-23.53
			L130.09,23.6C124.05,12.94,108.7,12.94,102.66,23.6z"/>
		<g>
			<circle class="st1" cx="122.5" cy="53.75" r="2.69"/>
			<circle class="st1" cx="110.72" cy="53.75" r="2.69"/>
		</g>
	</g>
	<g>
		<path class="st0" d="M182.77,27.68l-6.26,6.26l-6.26-6.26c-3.46-3.46-9.07-3.46-12.53,0s-3.46,9.07,0,12.53l6.26,6.26l-6.26,6.26
			c-3.46,3.46-3.46,9.07,0,12.53c3.46,3.46,9.07,3.46,12.53,0l6.26-6.26l6.26,6.26c3.46,3.46,9.07,3.46,12.53,0
			c3.46-3.46,3.46-9.07,0-12.53l-6.26-6.26l6.26-6.26c3.46-3.46,3.46-9.07,0-12.53C191.84,24.22,186.23,24.22,182.77,27.68z"/>
		<g>
			<circle class="st1" cx="181.28" cy="51.68" r="2.29"/>
			<circle class="st1" cx="171.25" cy="51.68" r="2.29"/>
		</g>
	</g>
	<g>
		<path class="st1" d="M20.88,77.71c1.21-0.83,2.69-1.24,4.43-1.24c1.74,0,3.27,0.63,4.58,1.88c1.31,1.26,1.97,2.96,1.97,5.1v12.76
			H30.5V83.45c0-1.66-0.54-3.03-1.63-4.13c-1.09-1.1-2.39-1.65-3.92-1.65c-1.53,0-2.88,0.57-4.07,1.71
			c-1.19,1.14-1.78,2.47-1.78,3.98v12.85h-1.37V83.36c0-1.54-0.54-2.88-1.63-4c-1.09-1.13-2.4-1.69-3.94-1.69
			c-1.54,0-2.88,0.57-4.03,1.71C7,80.52,6.43,81.85,6.43,83.36v12.85H5.06V76.94h1.37v2.7c0.57-0.86,1.42-1.6,2.55-2.23
			c1.13-0.63,2.3-0.94,3.51-0.94c1.21,0,2.38,0.42,3.49,1.26c1.11,0.84,1.93,1.93,2.44,3.28C18.85,79.64,19.67,78.54,20.88,77.71z"
			/>
		<path class="st1" d="M56.23,76.94v19.27h-1.37v-4.8c-0.8,1.63-2,2.91-3.6,3.85c-1.6,0.94-3.31,1.41-5.14,1.41
			c-2.8,0-5.2-0.99-7.19-2.98c-2-1.98-3-4.36-3-7.13c0-2.77,1-5.15,3-7.13c2-1.98,4.4-2.98,7.19-2.98c1.83,0,3.58,0.49,5.25,1.46
			c1.67,0.97,2.83,2.26,3.49,3.85v-4.84H56.23z M37.31,86.62c0,2.4,0.88,4.48,2.63,6.23s3.84,2.63,6.25,2.63
			c2.41,0,4.48-0.88,6.19-2.63s2.57-3.84,2.57-6.25c0-2.41-0.86-4.5-2.59-6.27c-1.73-1.77-3.79-2.66-6.19-2.66s-4.48,0.89-6.23,2.68
			S37.31,84.22,37.31,86.62z"/>
		<path class="st1" d="M68.74,84.52l7.75,11.69H74.9l-6.94-10.49l-6.9,10.49H59.7l7.58-11.56l-5.1-7.71h1.58l4.28,6.51l4.28-6.51
			h1.37L68.74,84.52z"/>
		<path class="st1" d="M99.1,77.62c-0.74,0-1.4,0.24-1.97,0.73c-0.57,0.49-0.86,1.09-0.86,1.8c0,0.71,0.32,1.37,0.96,1.97
			c0.64,0.6,1.41,1.15,2.31,1.65c0.9,0.5,1.81,1.04,2.72,1.61c0.91,0.57,1.69,1.3,2.33,2.18c0.64,0.89,0.96,1.9,0.96,3.04
			c0,1.68-0.64,3.12-1.91,4.3c-1.27,1.19-2.81,1.78-4.6,1.78c-1.14,0-2.21-0.25-3.19-0.75c-0.99-0.5-1.71-1.16-2.16-1.99v-2.06
			c1.08,2.4,2.83,3.6,5.22,3.6c1.48,0,2.73-0.46,3.75-1.37c1.01-0.91,1.52-1.93,1.52-3.06c0-1.13-0.32-2.08-0.96-2.85
			c-0.64-0.77-1.42-1.43-2.33-1.97c-0.91-0.54-1.82-1.08-2.72-1.61c-0.9-0.53-1.67-1.17-2.31-1.93c-0.64-0.76-0.96-1.64-0.96-2.65
			c0-1.01,0.41-1.87,1.22-2.57c0.81-0.7,1.86-1.05,3.15-1.05s2.38,0.5,3.3,1.5v1.76C101.65,78.31,100.5,77.62,99.1,77.62z"/>
		<path class="st1" d="M109.63,104.77V76.94H111v4.71c0.77-1.57,1.98-2.83,3.62-3.77c1.64-0.94,3.35-1.41,5.12-1.41
			c2.83,0,5.23,0.99,7.22,2.98c1.98,1.98,2.98,4.36,2.98,7.13c0,2.77-0.99,5.15-2.98,7.13c-1.98,1.98-4.39,2.98-7.22,2.98
			c-1.71,0-3.38-0.46-5.01-1.39c-1.63-0.93-2.87-2.18-3.73-3.75v13.23H109.63z M110.92,86.62c0,2.4,0.88,4.48,2.63,6.23
			s3.84,2.63,6.25,2.63c2.41,0,4.48-0.88,6.19-2.63s2.57-3.84,2.57-6.25c0-2.41-0.86-4.5-2.59-6.27c-1.73-1.77-3.79-2.66-6.19-2.66
			c-2.4,0-4.48,0.89-6.23,2.68S110.92,84.22,110.92,86.62z"/>
		<path class="st1" d="M153.23,76.94v19.27h-1.37v-4.8c-0.8,1.63-2,2.91-3.6,3.85c-1.6,0.94-3.31,1.41-5.14,1.41
			c-2.8,0-5.2-0.99-7.19-2.98c-2-1.98-3-4.36-3-7.13c0-2.77,1-5.15,3-7.13c2-1.98,4.4-2.98,7.19-2.98c1.83,0,3.58,0.49,5.25,1.46
			c1.67,0.97,2.83,2.26,3.49,3.85v-4.84H153.23z M134.3,86.62c0,2.4,0.88,4.48,2.63,6.23s3.84,2.63,6.25,2.63
			c2.41,0,4.48-0.88,6.19-2.63s2.57-3.84,2.57-6.25c0-2.41-0.86-4.5-2.59-6.27c-1.73-1.77-3.79-2.66-6.19-2.66s-4.48,0.89-6.23,2.68
			S134.3,84.22,134.3,86.62z"/>
		<path class="st1" d="M167.7,96.77h-0.39c-2.74,0-5.1-1.01-7.07-3.04c-1.97-2.03-2.95-4.4-2.95-7.13c0-2.73,1-5.08,3-7.07
			c2-1.98,4.45-2.98,7.37-2.98s5.4,1.1,7.45,3.3v2.18c-0.89-1.31-2.01-2.36-3.36-3.13c-1.36-0.77-2.78-1.16-4.26-1.16
			c-2.37,0-4.43,0.88-6.19,2.63s-2.63,3.85-2.63,6.27c0,2.43,0.88,4.52,2.63,6.27c1.76,1.76,3.82,2.63,6.19,2.63
			c1.48,0,2.9-0.39,4.26-1.16c1.36-0.77,2.48-1.83,3.36-3.17v2.23C173.11,95.67,170.64,96.77,167.7,96.77z"/>
		<path class="st1" d="M188.39,96.72H188c-2.71,0-5.07-1.02-7.09-3.06c-2.01-2.04-3.02-4.42-3.02-7.13c0-2.71,1-5.06,3-7.04
			c2-1.98,4.47-2.98,7.41-2.98c2.94,0,5.47,1.17,7.58,3.51L182.43,93.3c1.86,1.48,3.64,2.23,5.35,2.23s3.25-0.39,4.6-1.18
			c1.36-0.79,2.48-1.83,3.36-3.15v2.18C193.73,95.61,191.27,96.72,188.39,96.72z M187.94,77.71c-2.27,0-4.28,0.88-6.04,2.63
			c-1.76,1.76-2.63,3.78-2.63,6.06c0,2.28,0.76,4.28,2.27,6L194,80.02C192.23,78.48,190.21,77.71,187.94,77.71z"/>
	</g>
</g>
</svg>
